<svg width="220" height="48" viewBox="0 0 220 48" fill="none" xmlns="http://www.w3.org/2000/svg">
  <!-- Head outline -->
  <path d="M4 12 
           Q4 8 8 8 
           L20 8 
           Q24 8 26 10 
           Q28 12 28 16 
           L28 20 
           Q28 24 26 26 
           L26 28 
           Q26 32 24 34 
           L22 34 
           L22 36 
           L20 36 
           L20 40 
           L12 40 
           L12 36 
           L10 36 
           L10 34 
           L8 34 
           Q6 32 6 28 
           L6 26 
           Q4 24 4 20 
           L4 12 
           Z" 
        stroke="#3B44F6" 
        stroke-width="2" 
        fill="none"/>
  
  <!-- Gear icon inside head -->
  <g transform="translate(12, 16)">
    <!-- Gear teeth -->
    <g fill="#3B44F6">
      <rect x="3" y="0" width="2" height="4" rx="0.5"/>
      <rect x="8" y="1" width="4" height="2" rx="0.5" transform="rotate(45 10 2)"/>
      <rect x="10" y="6" width="2" height="4" rx="0.5"/>
      <rect x="8" y="11" width="4" height="2" rx="0.5" transform="rotate(-45 10 12)"/>
      <rect x="3" y="12" width="2" height="4" rx="0.5"/>
      <rect x="0" y="11" width="4" height="2" rx="0.5" transform="rotate(45 2 12)"/>
      <rect x="-2" y="6" width="2" height="4" rx="0.5"/>
      <rect x="0" y="1" width="4" height="2" rx="0.5" transform="rotate(-45 2 2)"/>
    </g>
    
    <!-- Main gear circle -->
    <circle cx="4" cy="8" r="3" fill="#3B44F6"/>
    
    <!-- Center hole -->
    <circle cx="4" cy="8" r="1" fill="white"/>
  </g>
  
  <!-- Text -->
  <text x="38" y="34" font-family="Segoe UI, Arial, sans-serif" font-size="28" font-weight="bold" fill="#3B44F6" letter-spacing="0.5">
    Think.<tspan font-weight="normal" letter-spacing="0" fill="#3B44F6">Engine</tspan>
  </text>
</svg>